<svg xmlns="http://www.w3.org/2000/svg" width="73" height="24" viewBox="0 0 73 24">
  <g fill="none">
    <path fill="#2E353F" d="M31.0012139,6 L32.5956826,6 L32.5956826,10.6530548 L34.286657,10.6530548 L37.1696894,6 L38.925001,6 L35.6067824,11.2482679 L35.6067824,11.2795638 L39.1337932,17.0610435 L37.3129306,17.0610435 L34.2854431,12.0005511 L32.5944687,12.0005511 L32.5944687,17.0610435 L31,17.0610435 L31.0012139,6 Z M44.7062397,12.1263253 L45.1250381,12.1263253 L45.1250381,11.9698457 C45.1250381,10.6707695 44.3517785,10.230855 43.337558,10.230855 C42.5321298,10.230855 41.7109207,10.5444048 41.0505546,10.998491 L40.422357,9.88600934 C41.0827231,9.35456907 42.3227306,8.94595056 43.4662323,8.94595056 C45.5116679,8.94595056 46.6873382,10.042489 46.6873382,12.0483807 L46.6873382,17.0622244 L45.2215438,17.0622244 L45.2215438,16.2627021 C45.220797,16.0529494 45.2370326,15.8434653 45.2701002,15.6361931 L45.2379316,15.6361931 C44.7309279,16.6202894 43.6988015,17.2439895 42.5673331,17.25 C41.1500951,17.25 39.8457505,16.3884763 39.8457505,14.899853 C39.8421088,12.4085792 43.0152653,12.1263253 44.7062397,12.1263253 Z M42.9345404,16.0430401 C44.3032221,16.0430401 45.1250381,14.6955438 45.1250381,13.5204703 L45.1250381,13.2252257 L44.7226275,13.2252257 C43.563345,13.2252257 41.4050158,13.3191135 41.4050158,14.7764408 C41.4068367,15.4011784 41.919713,16.0430401 42.9345404,16.0430401 Z M52.8224313,8.94536007 C53.9015958,8.94536007 55.1094347,9.30555847 55.8820874,10.1044903 L55.1409963,11.1673709 C54.5362732,10.5953948 53.7294898,10.2702381 52.8861614,10.258608 C51.2437434,10.258608 50.0516853,11.4649774 50.0516853,13.0787844 C50.0516853,14.6925913 51.2431364,15.9302567 52.9347178,15.9302567 C53.8366517,15.9302567 54.8162758,15.5074664 55.4469012,14.8673761 L56.0750988,15.9798578 C55.3340077,16.7474937 54.0940003,17.248819 52.8218243,17.248819 C50.2453037,17.248819 48.4572167,15.4773515 48.4572167,13.0970895 C48.4578236,10.7475331 50.2616915,8.94536007 52.8224313,8.94536007 Z M61.4223653,8.94536007 C62.5015299,8.94536007 63.7093687,9.30555847 64.4820214,10.1044903 L63.7409303,11.1673709 C63.1362072,10.5953948 62.3294238,10.2702381 61.4860955,10.258608 C59.8436774,10.258608 58.6516194,11.4649774 58.6516194,13.0787844 C58.6516194,14.6925913 59.8430705,15.9302567 61.5346518,15.9302567 C62.4365858,15.9302567 63.4162098,15.5074664 64.0468352,14.8673761 L64.6750328,15.9798578 C63.9339418,16.7474937 62.6939343,17.248819 61.4217583,17.248819 C58.8452378,17.248819 57.0571507,15.4773515 57.0571507,13.0970895 C57.0577577,10.7475331 58.8616255,8.94536007 61.4223653,8.94536007 Z M70.5533843,12.1257348 L70.9721827,12.1257348 L70.9721827,11.9692552 C70.9721827,10.670179 70.198923,10.2302645 69.1847025,10.2302645 C68.3792743,10.2302645 67.5580653,10.5438143 66.8976991,10.9979005 L66.2695015,9.88541885 C66.9298677,9.35397858 68.1698751,8.94536007 69.3133768,8.94536007 C71.3588125,8.94536007 72.5344828,10.0418985 72.5344828,12.0477903 L72.5344828,17.0616339 L71.0686884,17.0616339 L71.0686884,16.2627021 C71.0679415,16.0529494 71.0841772,15.8434653 71.1172447,15.6361931 L71.086897,15.6361931 C70.5798933,16.6202894 69.5477669,17.2439895 68.4162985,17.25 C66.9990605,17.25 65.6947159,16.3884763 65.6947159,14.899853 C65.6898603,12.4085792 68.8624099,12.1263253 70.5533843,12.1263253 L70.5533843,12.1257348 Z M68.780471,16.0430401 C70.1491528,16.0430401 70.9709687,14.6955438 70.9709687,13.5204703 L70.9709687,13.2252257 L70.5685581,13.2252257 C69.4092756,13.2252257 67.2509465,13.3191135 67.2509465,14.7764408 C67.2515534,15.4011784 67.7674645,16.0430401 68.780471,16.0430401 Z"/>
    <path fill="#FF8C00" fill-rule="evenodd" d="M15.8439771,20.8890764 C17.8611867,20.8890764 20.0501295,21.5780945 22.4727962,23.7162764 C22.715501,23.9303127 23.0383771,23.6641309 22.8269962,23.3981673 C20.4459486,20.4040582 18.2438629,19.8339491 16.0479105,19.3519855 C13.3617295,18.76224 11.9799771,17.2567855 11.0170438,15.60384 C10.8253771,15.2748218 10.7395105,15.3328582 10.7222057,15.7556945 C10.7011771,16.2725673 10.7368819,16.9567855 10.8531962,17.6298764 C10.7447676,17.6348945 10.6356819,17.6335855 10.5261581,17.6335855 C6.68318667,17.6335855 3.56789143,14.5303855 3.56789143,10.7026036 C3.56789143,6.87504 6.68318667,3.77184 10.5261581,3.77184 C14.3691295,3.77184 17.4844248,6.87504 17.4844248,10.7026036 C17.4844248,10.9751127 17.4710629,11.2441309 17.4406152,11.5083491 C16.9322057,11.4171491 15.9322533,11.4068945 15.2304248,11.4673309 C14.9666914,11.4900218 15.0037105,11.6124218 15.2032629,11.6484218 C17.5034819,12.0623127 19.0839105,13.48224 19.444901,16.0587491 C19.4534438,16.1180945 19.5312057,16.1357673 19.5620914,16.0844945 C20.5085962,14.5114036 21.0522724,12.6703855 21.0522724,10.7026036 C21.0522724,4.91227636 16.3394629,0.218094545 10.5261581,0.218094545 C4.71263429,0.218094545 4.38095237e-05,4.91227636 4.38095237e-05,10.7026036 C4.38095237e-05,16.4931491 4.71263429,21.1877673 10.5261581,21.1877673 C12.0684724,21.1877673 13.59852,20.8890764 15.8439771,20.8890764"/>
  </g>
</svg>
