<svg xmlns="http://www.w3.org/2000/svg" xmlns:xlink="http://www.w3.org/1999/xlink" width="290" height="24" viewBox="0 0 290 24">
	<svg xmlns="http://www.w3.org/2000/svg" x="0" y="0" width="63" height="24" viewBox="0 0 29 11">
		<defs>
			<linearGradient id="visa-a" x1="0%" x2="100.088%" y1="49.909%" y2="49.909%">
				<stop offset="0%" stop-color="#363C61"/>
				<stop offset="100%" stop-color="#4D64A9"/>
			</linearGradient>
		</defs>
		<path fill="url(#visa-a)" d="M11.0171689,0.778555556 L7.22048302,10.1126667 L4.74585739,10.1126667 L2.88141341,2.79766667 C2.85944073,2.43458413 2.6503158,2.10978564 2.33055497,1.94211111 C1.60121006,1.55943049 0.826619687,1.27193916 0.025424236,1.08655556 L0.076272708,0.744333333 L4.05092827,0.744333333 C4.59767032,0.775032123 5.04753841,1.18985339 5.12722093,1.73677778 L6.11029138,6.98133333 L8.54254329,0.744333333 L11.0171689,0.778555556 Z M20.6783786,7.04977778 C20.6783786,4.64566667 17.3817027,4.48311111 17.4071269,3.43933333 C17.4071269,3.11422222 17.7206925,2.76344444 18.3986721,2.67788889 C19.1896701,2.60249715 19.9861447,2.74439174 20.7038028,3.08855556 L21.1105906,1.155 C20.4112403,0.890794546 19.6708191,0.754625462 18.9241063,0.752888889 C16.6189756,0.752888889 14.9918245,1.99344444 14.974875,3.76444444 C14.974875,5.07344444 16.1359151,5.80922222 17.0172886,6.24555556 C17.8986621,6.68188889 18.2291772,6.98133333 18.2291772,7.37488889 C18.2291772,7.99088889 17.5003491,8.23044444 16.8308442,8.23044444 C15.9911898,8.26683996 15.1564156,8.08414934 14.4070671,7.7 L13.9833298,9.702 C14.8124892,10.028265 15.6951684,10.1937128 16.5850766,10.1896667 C19.0427528,10.1896667 20.6444796,8.96622222 20.6529544,7.06688889 L20.6783786,7.04977778 Z M26.754771,10.1297778 L28.9158311,10.1297778 L27.0513871,0.778555556 L25.0598219,0.778555556 C24.6075837,0.82165341 24.2209741,1.12521696 24.0682767,1.55711111 L20.5597322,10.1126667 L23.0089336,10.1126667 L23.5004688,8.55555556 L26.5005287,8.55555556 L26.754771,10.1297778 Z M24.1699737,6.61344444 L25.3988118,3.19122222 L26.1106904,6.61344444 L24.1699737,6.61344444 Z M14.3392691,0.778555556 L12.4070272,10.1126667 L10.0679975,10.1126667 L12.0087141,0.778555556 L14.3392691,0.778555556 Z"/>
	</svg>
	<svg xmlns="http://www.w3.org/2000/svg" xmlns:xlink="http://www.w3.org/1999/xlink" x="81" y="0" width="36" height="24" viewBox="0 0 21 14">
		<defs>
			<polygon id="master-a" points="12.654 .209 .075 .209 .075 13.066 12.654 13.066"/>
			<polygon id="master-c" points="12.579 .209 0 .209 0 13.066 12.579 13.066"/>
		</defs>
		<g fill="none">
			<g transform="translate(7.684 .662)">
				<mask id="master-b" fill="#fff">
					<use xlink:href="#master-a"/>
				</mask>
				<path fill="#FC9F3A" d="M12.6535515,6.63769244 C12.6535515,10.1883413 9.83762872,13.0664924 6.36425879,13.0664924 C2.89088886,13.0664924 0.0749660471,10.1883413 0.0749660471,6.63769244 C0.0749660471,3.08704356 2.89088886,0.208892444 6.36425879,0.208892444 C9.83762872,0.208892444 12.6535515,3.08704356 12.6535515,6.63769244 Z" mask="url(#master-b)"/>
			</g>
			<g transform="translate(0 .662)">
				<mask id="master-d" fill="#fff">
					<use xlink:href="#master-c"/>
				</mask>
				<path fill="#F14840" d="M12.5790124,6.63769244 C12.5790124,10.1883413 9.76308958,13.0664924 6.28971966,13.0664924 C2.81634973,13.0664924 0.000426913708,10.1883413 0.000426913708,6.63769244 C0.000426913708,3.08704356 2.81634973,0.208892444 6.28971966,0.208892444 C9.76308958,0.208892444 12.5790124,3.08704356 12.5790124,6.63769244 Z" mask="url(#master-d)"/>
			</g>
			<path fill="#F46B3E" d="M10.1689991,2.239104 C8.70126981,3.41597511 7.75949817,5.24530844 7.75949817,7.29938844 C7.75949817,9.35433956 8.70126981,11.184544 10.1689991,12.3614151 C11.6367285,11.184544 12.5785001,9.35433956 12.5785001,7.29938844 C12.5785001,5.24530844 11.6367285,3.41597511 10.1689991,2.239104"/>
		</g>
	</svg>
	<svg xmlns="http://www.w3.org/2000/svg" x="135" y="0" width="61" height="24" viewBox="0 0 28 11">
		<defs>
			<linearGradient id="mir-a" x1="0%" x2="100.141%" y1="50.052%" y2="50.052%">
				<stop offset="0%" stop-color="#5BAAE3"/>
				<stop offset="33%" stop-color="#58A1DC"/>
				<stop offset="87%" stop-color="#4F89C8"/>
				<stop offset="100%" stop-color="#4C82C3"/>
			</linearGradient>
		</defs>
		<g fill="none">
			<path fill="#3CA85B" d="M6.34362821,5.91188889 L6.1217059,5.91188889 L4.82366977,1.31327777 C4.60332042,0.534355072 3.90473353,-0.00135354268 3.11109951,-5.17689131e-15 L0,-2.55906003e-06 L0,10.0057223 L3.11528672,10.0057223 L3.11528672,4.09383333 L3.34977067,4.09383333 L5.12933634,10.0057223 L7.35693384,10.0057223 L9.12812508,4.09383333 L9.35004738,4.09383333 L9.35004738,10.0057223 L12.4653341,10.0057223 L12.4653341,-2.55906003e-06 L9.35423462,-5.3787363e-15 C8.56060058,-0.00135354268 7.8620137,0.534355072 7.64166434,1.31327777 L6.34362821,5.91188889 Z"/>
			<path fill="url(#mir-a)" d="M24.7045587,0 L17.8082183,0 C18.2371681,2.36699722 20.2547031,4.08673694 22.6109521,4.09383333 L27.9705851,4.09383333 C28.1669295,3.09167104 27.9145644,2.05230529 27.2825289,1.26007412 C26.6504934,0.467842931 25.7049459,0.00567315035 24.7045587,3.79942991e-16 Z"/>
			<polygon fill="#3CA85B" points="13.801 0 16.916 0 16.916 10.006 13.801 10.006"/>
			<path fill="#3CA85B" d="M28.0543294,10.01 L25.8434807,6.622 C26.7853072,6.27470378 27.5256767,5.51518242 27.8617176,4.55155556 L18.2562502,4.55155556 L18.2562502,10.0057223 L21.354788,10.0057223 L21.354788,6.84444444 L22.8454359,6.84444444 L24.4784492,10.0313889 L28.0543294,10.01 Z"/>
		</g>
	</svg>
	<svg xmlns="http://www.w3.org/2000/svg" xmlns:xlink="http://www.w3.org/1999/xlink" x="214" y="0" width="76" height="24" viewBox="0 0 35 11">
		<defs>
			<polygon id="qiwi-a" points="0 0 34.995 0 34.995 10.968 0 10.968"/>
		</defs>
		<g fill="none" fill-rule="evenodd">
			<mask id="qiwi-b" fill="#fff">
				<use xlink:href="#qiwi-a"/>
			</mask>
			<path fill="#FF8C00" d="M6.85768111,8.16308916 L5.76986378,6.85468522 C5.65570743,6.71732069 5.75355573,6.50940443 5.93186068,6.50940443 L8.20799845,6.50940443 C8.31641176,6.18661133 8.37741796,5.8419266 8.37741796,5.48374926 C8.37741796,3.84453251 7.15789009,2.43100542 5.48314551,2.43100542 C3.80856347,2.43100542 2.58827709,3.84453251 2.58827709,5.48374926 C2.58827709,7.12334532 3.80856347,8.51666059 5.48314551,8.51666059 C5.99037461,8.51666059 6.45507276,8.38731576 6.85768111,8.16308916 Z M11.7803282,10.3747394 C11.8987647,10.5055473 11.8015666,10.7162813 11.6236409,10.7162813 L9.139887,10.7162813 C9.03830031,10.7162813 8.94283591,10.6715768 8.87814551,10.5935473 L8.4568452,10.0872222 C7.5996161,10.6435621 6.57898142,10.9678182 5.48314551,10.9678182 C2.45954644,10.9678182 1.08359133e-05,8.50777389 1.08359133e-05,5.48374926 C1.08359133e-05,2.46004975 2.45954644,5.41871921e-06 5.48314551,5.41871921e-06 C8.50652786,5.41871921e-06 10.9659009,2.46004975 10.9659009,5.48374926 C10.9659009,6.57399557 10.6449954,7.58995123 10.0945851,8.44442906 L11.7803282,10.3747394 Z M34.7248328,0.252463547 L32.6979211,0.252463547 C32.5487105,0.252463547 32.4283235,0.3728133 32.4283235,0.521936453 L32.4283235,10.4459414 C32.4283235,10.5947394 32.5487105,10.7154685 32.6979211,10.7154685 L34.7248328,10.7154685 C34.873935,10.7154685 34.9946471,10.5947394 34.9946471,10.4459414 L34.9946471,0.521936453 C34.9946471,0.3728133 34.873935,0.252463547 34.7248328,0.252463547 Z M31.3139582,0.252463547 L29.0463808,0.252463547 C28.9273483,0.252463547 28.8227276,0.329300985 28.7879985,0.441631034 L26.993517,6.30614828 L25.0210557,0.435236946 C24.9842136,0.326103941 24.8813808,0.252463547 24.7652198,0.252463547 L23.1826347,0.252463547 C23.066582,0.252463547 22.9635867,0.326103941 22.926582,0.435236946 L20.9544458,6.30614828 L19.159856,0.441631034 C19.1251269,0.329300985 19.0205604,0.252463547 18.9019613,0.252463547 L16.6338963,0.252463547 C16.5471548,0.252463547 16.466048,0.2937 16.4151734,0.363384729 C16.3645155,0.433340394 16.350808,0.522749261 16.3780062,0.604463547 L19.7092368,10.5336163 C19.7462415,10.642966 19.8490743,10.7162813 19.9653437,10.7162813 L21.7651889,10.7162813 C21.8809706,10.7162813 21.9839118,10.642966 22.0206455,10.5336163 L23.9742523,4.73276897 L25.9269923,10.5336163 C25.9636718,10.642966 26.0666672,10.7162813 26.182774,10.7162813 L27.9830526,10.7162813 C28.0987802,10.7162813 28.2019923,10.642966 28.2387802,10.5336163 L31.5700108,0.604463547 C31.597209,0.522749261 31.5834474,0.433340394 31.5327353,0.363384729 C31.4819149,0.2937 31.400483,0.252463547 31.3139582,0.252463547 Z M15.5199102,0.521936453 L15.5199102,10.4459414 C15.5199102,10.5947394 15.3988731,10.7154685 15.2497167,10.7154685 L13.2229675,10.7154685 C13.0740279,10.7154685 12.95337,10.5947394 12.95337,10.4459414 L12.95337,0.521936453 C12.95337,0.3728133 13.0740279,0.252463547 13.2229675,0.252463547 L15.2497167,0.252463547 C15.3988731,0.252463547 15.5199102,0.3728133 15.5199102,0.521936453 Z" mask="url(#qiwi-b)"/>
		</g>
	</svg>
</svg>
